<svg id="Capa_1" data-name="Capa 1" xmlns="http://www.w3.org/2000/svg" viewBox="0 0 711.43 711.43"><defs><style>.cls-1{fill:#282b5e;}</style></defs><path class="cls-1" d="M486.81,337.45a4.57,4.57,0,0,1-3.34-1.45l-74.13-79.45H200.84L126.7,336a4.56,4.56,0,1,1-6.66-6.22l76.83-82.35H413.3l76.84,82.35a4.56,4.56,0,0,1-3.33,7.67Z"/><path class="cls-1" d="M456.05,493.5H379.11a4.56,4.56,0,0,1-4.55-4.56V426.53H345v62.41a4.56,4.56,0,0,1-4.56,4.56H269.72a4.56,4.56,0,0,1-4.55-4.56V426.53H235.62v62.41a4.56,4.56,0,0,1-4.56,4.56H154.12a4.56,4.56,0,0,1-4.55-4.56V337.83a4.56,4.56,0,1,1,9.11,0V484.38H226.5V422a4.56,4.56,0,0,1,4.56-4.56h38.66a4.56,4.56,0,0,1,4.56,4.56v62.41h61.61V422a4.56,4.56,0,0,1,4.56-4.56h38.66a4.56,4.56,0,0,1,4.56,4.56v62.41h67.82V337.83a4.56,4.56,0,0,1,9.12,0V488.94A4.56,4.56,0,0,1,456.05,493.5Z"/><path class="cls-1" d="M352.07,360.77v28.76H333.21V360.77h18.86m0-9.11H333.21a9.11,9.11,0,0,0-9.11,9.11v28.76a9.11,9.11,0,0,0,9.11,9.12h18.86a9.11,9.11,0,0,0,9.11-9.12V360.77a9.11,9.11,0,0,0-9.11-9.11Z"/><path class="cls-1" d="M404.9,360.77v28.76H386V360.77H404.9m0-9.11H386a9.12,9.12,0,0,0-9.12,9.11v28.76a9.12,9.12,0,0,0,9.12,9.12H404.9a9.11,9.11,0,0,0,9.11-9.12V360.77a9.11,9.11,0,0,0-9.11-9.11Z"/><path class="cls-1" d="M404.9,297.63v28.76H386V297.63H404.9m0-9.12H386a9.12,9.12,0,0,0-9.12,9.12v28.76A9.12,9.12,0,0,0,386,335.5H404.9a9.11,9.11,0,0,0,9.11-9.11V297.63a9.11,9.11,0,0,0-9.11-9.12Z"/><path class="cls-1" d="M352.07,297.63v28.76H333.21V297.63h18.86m0-9.12H333.21a9.11,9.11,0,0,0-9.11,9.12v28.76a9.11,9.11,0,0,0,9.11,9.11h18.86a9.11,9.11,0,0,0,9.12-9.11V297.63a9.12,9.12,0,0,0-9.12-9.12Z"/><path class="cls-1" d="M224.13,360.77v28.76H205.28V360.77h18.85m0-9.11H205.28a9.11,9.11,0,0,0-9.12,9.11v28.76a9.12,9.12,0,0,0,9.12,9.12h18.85a9.12,9.12,0,0,0,9.12-9.12V360.77a9.11,9.11,0,0,0-9.12-9.11Z"/><path class="cls-1" d="M277,360.77v28.76H258.1V360.77H277m0-9.11H258.1a9.11,9.11,0,0,0-9.11,9.11v28.76a9.11,9.11,0,0,0,9.11,9.12H277a9.12,9.12,0,0,0,9.12-9.12V360.77a9.11,9.11,0,0,0-9.12-9.11Z"/><path class="cls-1" d="M277,297.63v28.76H258.1V297.63H277m0-9.12H258.1a9.11,9.11,0,0,0-9.11,9.12v28.76a9.11,9.11,0,0,0,9.11,9.11H277a9.11,9.11,0,0,0,9.12-9.11V297.63a9.12,9.12,0,0,0-9.12-9.12Z"/><path class="cls-1" d="M224.14,297.63v28.76H205.28V297.63h18.86m0-9.12H205.28a9.12,9.12,0,0,0-9.12,9.12v28.76a9.11,9.11,0,0,0,9.12,9.11h18.86a9.11,9.11,0,0,0,9.11-9.11V297.63a9.11,9.11,0,0,0-9.11-9.12Z"/></svg>