<svg id="Capa_1" data-name="Capa 1" xmlns="http://www.w3.org/2000/svg" viewBox="0 0 711.43 711.43"><defs><style>.cls-1{fill:#282b5e;}</style></defs><path class="cls-1" d="M288.83,478.56H182.75a6.53,6.53,0,0,1-6.53-6.53V360.75a54.7,54.7,0,0,1,54.64-54.64h9.86a54.7,54.7,0,0,1,54.64,54.64V472A6.53,6.53,0,0,1,288.83,478.56Zm-99.55-13.07h93V360.75a41.63,41.63,0,0,0-41.58-41.58h-9.86a41.63,41.63,0,0,0-41.58,41.58Z"/><path class="cls-1" d="M429.19,478.56H182.75a6.53,6.53,0,0,1-6.53-6.53V360.75a54.7,54.7,0,0,1,54.64-54.64h99a6.53,6.53,0,1,1,0,13.06h-99a41.63,41.63,0,0,0-41.58,41.58V465.49H422.66V360.75a6.54,6.54,0,0,1,13.07,0V472A6.54,6.54,0,0,1,429.19,478.56Z"/><path class="cls-1" d="M340.36,551.07a6.54,6.54,0,0,1-6.54-6.54v-66h-15v66a6.53,6.53,0,1,1-13.06,0V472a6.53,6.53,0,0,1,6.53-6.54h28.09a6.54,6.54,0,0,1,6.53,6.54v72.5A6.54,6.54,0,0,1,340.36,551.07Z"/><path class="cls-1" d="M258.92,379.05H215.37a6.53,6.53,0,0,1,0-13.06h43.55a6.53,6.53,0,1,1,0,13.06Z"/><path class="cls-1" d="M389.13,397.78h-.22a6.52,6.52,0,0,1-5.78-3.94L321.73,251a6.53,6.53,0,0,1,10.56-7.26L422,331.26a6.54,6.54,0,0,1,1.25,7.66L395,394.22A6.54,6.54,0,0,1,389.13,397.78Zm-42.4-121.7,42.92,99.82,19.78-38.65Z"/><path class="cls-1" d="M415.26,344.65a6.54,6.54,0,0,1-4.68-2L323.05,253a6.53,6.53,0,0,1,7.26-10.56l142.84,61.4a6.53,6.53,0,0,1,.39,11.82l-55.3,28.3A6.61,6.61,0,0,1,415.26,344.65ZM355.4,267.41l61.17,62.7,38.65-19.79Z"/></svg>