<svg id="Capa_1" data-name="Capa 1" xmlns="http://www.w3.org/2000/svg" viewBox="0 0 711.43 711.43"><defs><style>.cls-1{fill:#282b5e;}</style></defs><path class="cls-1" d="M368.36,544.81H324.11a6.35,6.35,0,0,1-6.35-6.35V476h-33v62.47a6.35,6.35,0,0,1-6.35,6.35H174.64a6.35,6.35,0,0,1-6.35-6.35V453A6.36,6.36,0,0,1,181,453v79.07h91V469.64a6.36,6.36,0,0,1,6.36-6.36h45.73a6.36,6.36,0,0,1,6.36,6.36v62.47H362V453a6.36,6.36,0,0,1,12.71,0v85.42A6.35,6.35,0,0,1,368.36,544.81Z"/><path class="cls-1" d="M394,455.27a6.32,6.32,0,0,1-4.49-1.86l-118-118-118,118a6.35,6.35,0,1,1-9-9l127-127,127,127A6.36,6.36,0,0,1,394,455.27Z"/><path class="cls-1" d="M241.38,468.71v33.65H207.73V468.71h33.65m0-12.71H207.73A12.71,12.71,0,0,0,195,468.71v33.65a12.71,12.71,0,0,0,12.7,12.7h33.65a12.71,12.71,0,0,0,12.71-12.7V468.71A12.71,12.71,0,0,0,241.38,456Z"/><path class="cls-1" d="M188.59,415.76a6.35,6.35,0,0,1-6.35-6.35V351.19h33.12a6.35,6.35,0,0,1,0,12.7H194.94v45.52A6.35,6.35,0,0,1,188.59,415.76Z"/><path class="cls-1" d="M454.53,328.08a5.09,5.09,0,0,1-4.68-7.07c.67-1.58,16.78-38.52,53.34-40,35.37-1.35,64.46,22.82,65.68,23.85a5.08,5.08,0,0,1-2.63,8.93l-58.14,7.44a5.08,5.08,0,1,1-1.29-10.08l45-5.76c-10.77-6.53-28.64-15-48.23-14.22-20.36.8-33.38,15.74-39.74,25.48l22.35-2.86a5.08,5.08,0,1,1,1.29,10.08L455.18,328C455,328.06,454.74,328.08,454.53,328.08Z"/><path class="cls-1" d="M454.52,328.07a5.08,5.08,0,0,1-5-4.46c-.16-1.38-3.87-34.15,21-53.28,28.51-21.95,61-5.42,62.38-4.71a5.08,5.08,0,0,1,.55,8.68l-21,14.61a5.09,5.09,0,0,1-5.81-8.35l13.12-9.13c-10-2.91-27.39-5.1-43.05,6.95-20.2,15.55-17.13,43.72-17.09,44a5.08,5.08,0,0,1-4.44,5.64A4.4,4.4,0,0,1,454.52,328.07Z"/><path class="cls-1" d="M567.94,376.48a5.14,5.14,0,0,1-2-.41l-113.42-48.4a5.08,5.08,0,1,1,4-9.35l101.35,43.25c-6.45-12.25-19-31.3-38.79-41.88a5.08,5.08,0,0,1,4.8-9c34.16,18.27,48.26,57.32,48.84,59a5.08,5.08,0,0,1-4.79,6.78Z"/><path class="cls-1" d="M454.53,328.08c-.21,0-.43,0-.65,0L342.81,313.82a5.09,5.09,0,0,1-2.63-8.93c1.23-1,30.38-25.24,65.68-23.85,36.56,1.45,52.68,38.39,53.35,40a5.09,5.09,0,0,1-4.68,7.07Zm-97.3-22.66,87.95,11.25c-6.4-9.74-19.46-24.67-39.72-25.47C386,290.41,368,298.89,357.23,305.42Z"/><path class="cls-1" d="M454.54,328.08c-.21,0-.42,0-.63,0a5.09,5.09,0,0,1-4.43-5.65h0c0-.28,3.1-28.46-17.1-44-15.65-12.05-33-9.86-43.05-6.95l11.87,8.26a5.08,5.08,0,1,1-5.81,8.34L375.65,274.3a5.08,5.08,0,0,1,.55-8.68c1.37-.71,33.86-17.24,62.38,4.71,24.86,19.13,21.16,51.9,21,53.28A5.09,5.09,0,0,1,454.54,328.08Z"/><path class="cls-1" d="M341.11,376.48a5.09,5.09,0,0,1-4.79-6.78c.59-1.65,14.68-40.7,48.84-59a5.08,5.08,0,0,1,4.8,9c-19.79,10.58-32.34,29.63-38.78,41.88l101.35-43.25a5.08,5.08,0,1,1,4,9.35l-113.42,48.4A5.15,5.15,0,0,1,341.11,376.48Z"/><path class="cls-1" d="M480.65,543.54H428.4l6.47-139.68a5.09,5.09,0,0,1,10.16.47l-6,129.05h31l-9.45-204H448.49l-1.65,35.74a5,5,0,0,1-5.31,4.85,5.1,5.1,0,0,1-4.85-5.32l2.11-45.43h31.47Z"/><path class="cls-1" d="M488.87,543.49H420.18a5.08,5.08,0,1,1,0-10.16h68.69a5.08,5.08,0,1,1,0,10.16Z"/></svg>