<svg id="Capa_1" data-name="Capa 1" xmlns="http://www.w3.org/2000/svg" viewBox="0 0 711.43 711.43"><defs><style>.cls-1{fill:#282b5e;}</style></defs><path class="cls-1" d="M544.21,540.55H220.71a4.44,4.44,0,0,1-4.44-4.44V511.2a4.44,4.44,0,0,1,4.44-4.44h9.2V258.57a4.44,4.44,0,0,1,4.44-4.44h23.44V234.85a4.43,4.43,0,0,1,4.43-4.44h80.65a4.44,4.44,0,0,1,4.44,4.44v19.28h23.43a4.44,4.44,0,0,1,4.44,4.44V441.22a4.44,4.44,0,1,1-8.87,0V263H342.87a4.43,4.43,0,0,1-4.43-4.44V239.29H266.66v19.28a4.44,4.44,0,0,1-4.44,4.44H238.79V511.2a4.44,4.44,0,0,1-4.44,4.44h-9.2v16H539.77v-16h-9.21a4.43,4.43,0,0,1-4.43-4.44V360.26H502.69a4.43,4.43,0,0,1-4.43-4.43V336.54H426.48v19.29a4.43,4.43,0,0,1-4.44,4.43H394.17a4.44,4.44,0,1,1,0-8.87h23.44V332.11a4.43,4.43,0,0,1,4.43-4.44h80.65a4.44,4.44,0,0,1,4.44,4.44v19.28h23.43a4.44,4.44,0,0,1,4.44,4.44V506.76h9.21a4.43,4.43,0,0,1,4.43,4.44v24.91A4.43,4.43,0,0,1,544.21,540.55Z"/><rect class="cls-1" x="265.19" y="314.76" width="14.23" height="29.65"/><rect class="cls-1" x="265.19" y="352.57" width="14.23" height="29.65"/><rect class="cls-1" x="265.19" y="390.37" width="14.23" height="29.65"/><rect class="cls-1" x="265.19" y="428.18" width="14.23" height="29.65"/><rect class="cls-1" x="265.19" y="465.98" width="14.23" height="29.65"/><rect class="cls-1" x="286.53" y="314.76" width="14.23" height="29.65"/><rect class="cls-1" x="286.53" y="352.57" width="14.23" height="29.65"/><rect class="cls-1" x="286.53" y="390.37" width="14.23" height="29.65"/><rect class="cls-1" x="286.53" y="428.18" width="14.23" height="29.65"/><rect class="cls-1" x="286.53" y="465.98" width="14.23" height="29.65"/><rect class="cls-1" x="307.88" y="314.76" width="14.23" height="29.65"/><rect class="cls-1" x="307.88" y="352.57" width="14.23" height="29.65"/><rect class="cls-1" x="307.88" y="390.37" width="14.23" height="29.65"/><rect class="cls-1" x="307.88" y="428.18" width="14.23" height="29.65"/><rect class="cls-1" x="307.88" y="465.98" width="14.23" height="29.65"/><rect class="cls-1" x="265.19" y="276.95" width="14.23" height="29.65"/><rect class="cls-1" x="286.53" y="276.95" width="14.23" height="29.65"/><rect class="cls-1" x="307.88" y="276.95" width="14.23" height="29.65"/><rect class="cls-1" x="329.23" y="276.95" width="14.23" height="29.65"/><rect class="cls-1" x="329.23" y="314.76" width="14.23" height="29.65"/><rect class="cls-1" x="329.23" y="352.57" width="14.23" height="29.65"/><rect class="cls-1" x="329.23" y="390.37" width="14.23" height="29.65"/><rect class="cls-1" x="329.23" y="428.18" width="14.23" height="29.65"/><rect class="cls-1" x="329.23" y="465.98" width="14.23" height="29.65"/><rect class="cls-1" x="421.45" y="395.15" width="14.23" height="18.51"/><rect class="cls-1" x="421.45" y="418.75" width="14.23" height="18.51"/><rect class="cls-1" x="421.45" y="442.36" width="14.23" height="18.51"/><rect class="cls-1" x="421.45" y="465.97" width="14.23" height="18.51"/><rect class="cls-1" x="421.45" y="489.57" width="14.23" height="18.51"/><rect class="cls-1" x="442.8" y="395.15" width="14.23" height="18.51"/><rect class="cls-1" x="442.8" y="418.75" width="14.23" height="18.51"/><rect class="cls-1" x="442.8" y="442.36" width="14.23" height="18.51"/><rect class="cls-1" x="442.8" y="465.97" width="14.23" height="18.51"/><rect class="cls-1" x="442.8" y="489.57" width="14.23" height="18.51"/><rect class="cls-1" x="464.15" y="395.15" width="14.23" height="18.51"/><rect class="cls-1" x="464.15" y="418.75" width="14.23" height="18.51"/><rect class="cls-1" x="464.15" y="442.36" width="14.23" height="18.51"/><rect class="cls-1" x="464.15" y="465.97" width="14.23" height="18.51"/><rect class="cls-1" x="464.15" y="489.57" width="14.23" height="18.51"/><rect class="cls-1" x="421.45" y="371.54" width="14.23" height="18.52"/><rect class="cls-1" x="442.8" y="371.54" width="14.23" height="18.52"/><rect class="cls-1" x="464.15" y="371.54" width="14.23" height="18.52"/><rect class="cls-1" x="485.49" y="371.54" width="14.23" height="18.52"/><rect class="cls-1" x="485.49" y="395.15" width="14.23" height="18.51"/><rect class="cls-1" x="485.49" y="418.75" width="14.23" height="18.51"/><rect class="cls-1" x="485.49" y="442.36" width="14.23" height="18.51"/><rect class="cls-1" x="485.49" y="465.97" width="14.23" height="18.51"/><rect class="cls-1" x="485.49" y="489.57" width="14.23" height="18.51"/></svg>