<svg id="Capa_1" data-name="Capa 1" xmlns="http://www.w3.org/2000/svg" viewBox="0 0 711.43 711.43"><defs><style>.cls-1{fill:#282b5e;}</style></defs><path class="cls-1" d="M404,521.15q-63.65,0-127.28,0c-16.63,0-21.92-5.06-22-21.75q-.22-88,0-176c0-16.55,7.38-24.4,23.8-24.44q125.92-.31,251.85,0c16.61,0,23,6.8,23,22.9q.07,89.39,0,178.75c0,16.92-3.7,20.57-20.76,20.6Q468.26,521.22,404,521.15ZM536.61,319.61l-1.89-2.71H274.8l-2.25,3.29c2.68,1.57,5.65,2.8,8,4.75q51.72,42.58,103.33,85.32c16.21,13.35,25.32,13.27,41.82-.31Q476.93,367.8,528,325.53C530.71,323.33,533.74,321.57,536.61,319.61ZM287.89,505.33H521.47c-32.6-24.29-62.52-46.75-92.73-68.8-2.74-2-7.39-1.73-11.17-1.86-8.83-.3-17.67-.32-26.5-.19-3.34,0-7.49-.27-9.88,1.48C350.67,458.33,320.41,481.06,287.89,505.33Zm249.81-8.76V339.1L437.56,422Zm-166-74.66L271.4,339V496.77Z"/><path class="cls-1" d="M194.68,429.15c-11.22,0-22.47.41-33.65-.26-3.12-.19-6.06-3.57-9.08-5.48,3-2.43,6-6.89,9.11-7q33.65-.9,67.3,0c3.17.09,6.22,4.57,9.33,7-3.12,1.89-6.15,5.21-9.37,5.41C217.15,429.56,205.9,429.15,194.68,429.15Z"/><path class="cls-1" d="M208,379c-7.19,0-14.48.68-21.54-.32-3-.42-5.45-4.37-8.15-6.72,2.63-1.92,5.2-5.41,7.89-5.51,14.37-.56,28.79-.55,43.16,0,2.77.11,5.42,3.45,8.12,5.3-2.63,2.42-5,6.51-7.94,6.93C222.49,379.64,215.2,379,208,379Z"/><path class="cls-1" d="M207.24,450.76c-6.74,0-13.57.67-20.16-.29-3.13-.45-5.81-4-8.69-6.17,2.5-2.13,4.92-6,7.5-6.1,14.79-.59,29.63-.6,44.42,0,2.52.1,4.88,4.11,7.31,6.32-2.49,2.06-4.83,5.61-7.51,5.9-7.55.81-15.24.28-22.87.28Z"/><path class="cls-1" d="M215.1,462c5.35,0,10.84-.69,16,.27,2.83.53,5.14,3.84,7.69,5.89-2.35,2.18-4.6,6.09-7.07,6.23a299.1,299.1,0,0,1-34.79,0c-2.46-.14-4.69-4.09-7-6.29,2.59-2,5-5.35,7.81-5.82C203.38,461.32,209.29,462,215.1,462Z"/><path class="cls-1" d="M214.39,404.82c-6.3,0-12.67.54-18.84-.31-2.1-.29-4.61-3.91-5.16-6.39-.29-1.32,3.2-4.93,5.07-5,12.57-.47,25.18-.55,37.74,0,1.9.09,4.55,3.95,5.05,6.42.28,1.37-3.05,4.82-5,5C227,405.24,220.68,404.83,214.39,404.82Z"/></svg>