<svg id="Capa_1" data-name="Capa 1" xmlns="http://www.w3.org/2000/svg" viewBox="0 0 711.43 711.43"><defs><style>.cls-1{fill:#282b5e;}</style></defs><path class="cls-1" d="M364.72,468.13A112.42,112.42,0,1,1,477.14,355.71,112.54,112.54,0,0,1,364.72,468.13Zm0-214.73A102.32,102.32,0,1,0,467,355.71,102.42,102.42,0,0,0,364.72,253.4Z"/><ellipse class="cls-1" cx="332.64" cy="327.69" rx="12.12" ry="19.18"/><ellipse class="cls-1" cx="396.81" cy="327.69" rx="12.12" ry="19.18"/><path class="cls-1" d="M422,411.24a75.19,75.19,0,0,0-27.06-16.75,91.53,91.53,0,0,0-30.48-5.27,89.67,89.67,0,0,0-30.46,5.1,72.27,72.27,0,0,0-26.88,16.92c4.45-10.36,13.36-18.83,23.65-24.18a72.51,72.51,0,0,1,33.73-7.93,73.75,73.75,0,0,1,33.65,8.13C408.36,392.62,417.32,401,422,411.24Z"/></svg>