<svg id="Capa_1" data-name="Capa 1" xmlns="http://www.w3.org/2000/svg" viewBox="0 0 711.43 711.43"><defs><style>.cls-1{fill:#282b5e;}</style></defs><path class="cls-1" d="M359.88,482.39A112.42,112.42,0,1,1,472.29,370,112.55,112.55,0,0,1,359.88,482.39Zm0-214.74A102.32,102.32,0,1,0,462.2,370,102.44,102.44,0,0,0,359.88,267.65Z"/><ellipse class="cls-1" cx="327.79" cy="341.94" rx="12.12" ry="19.18"/><ellipse class="cls-1" cx="391.96" cy="341.94" rx="12.12" ry="19.18"/><path class="cls-1" d="M305.09,414.88a198.63,198.63,0,0,1,27.39-3.95q13.69-1.11,27.4-1.09t27.39,1.08a194.12,194.12,0,0,1,27.4,4,192.7,192.7,0,0,1-27.4,4q-13.69,1.11-27.39,1.08t-27.4-1.09A197.15,197.15,0,0,1,305.09,414.88Z"/></svg>