<svg id="Capa_1" data-name="Capa 1" xmlns="http://www.w3.org/2000/svg" viewBox="0 0 711.43 711.43"><defs><style>.cls-1{fill:#282b5e;}</style></defs><path class="cls-1" d="M395.28,465.8A112.42,112.42,0,1,1,507.7,353.38,112.55,112.55,0,0,1,395.28,465.8Zm0-214.74A102.32,102.32,0,1,0,497.6,353.38,102.44,102.44,0,0,0,395.28,251.06Z"/><ellipse class="cls-1" cx="363.2" cy="325.35" rx="12.12" ry="19.18"/><ellipse class="cls-1" cx="427.37" cy="325.35" rx="12.12" ry="19.18"/><path class="cls-1" d="M340.72,397.77A79.73,79.73,0,0,0,367,411.88a95.13,95.13,0,0,0,28.61,4.42A93.53,93.53,0,0,0,424.2,412a77,77,0,0,0,26.15-14.25c-4.77,9.41-13.42,16.86-23.16,21.61a71.68,71.68,0,0,1-31.62,7A72.85,72.85,0,0,1,364,419.21C354.31,414.46,345.63,407.1,340.72,397.77Z"/></svg>