<svg id="Capa_1" data-name="Capa 1" xmlns="http://www.w3.org/2000/svg" viewBox="0 0 711.43 711.43"><defs><style>.cls-1{fill:#282b5e;}</style></defs><path class="cls-1" d="M436,578.9H436l-17-.17H237.08a5.36,5.36,0,0,1-5.37-5.37v-30.2a5.37,5.37,0,0,1,5.37-5.38h11.16V236.92a5.38,5.38,0,0,1,5.38-5.38H282V208.16a5.38,5.38,0,0,1,5.38-5.38h97.76a5.38,5.38,0,0,1,5.38,5.38v23.38H419a5.38,5.38,0,0,1,5.38,5.4l-.58,117.73V538h11.16a5.39,5.39,0,0,1,5.38,5.18l1.09,30.2A5.38,5.38,0,0,1,436,578.9ZM242.46,568H419l11.48.11-.71-19.38H418.38a5.37,5.37,0,0,1-5.37-5.38V460.65a5.28,5.28,0,0,1-.52-2.34l1.06-216H385.17a5.37,5.37,0,0,1-5.38-5.37V213.54h-87v23.38a5.36,5.36,0,0,1-5.37,5.37H259V543.16a5.37,5.37,0,0,1-5.37,5.38H242.46Z"/><rect class="cls-1" x="291" y="305.03" width="17.25" height="35.95"/><rect class="cls-1" x="291" y="350.86" width="17.25" height="35.95"/><rect class="cls-1" x="291" y="396.69" width="17.25" height="35.95"/><rect class="cls-1" x="291" y="442.52" width="17.25" height="35.95"/><rect class="cls-1" x="291" y="488.35" width="17.25" height="35.95"/><rect class="cls-1" x="316.88" y="305.03" width="17.25" height="35.95"/><rect class="cls-1" x="316.88" y="350.86" width="17.25" height="35.95"/><rect class="cls-1" x="316.88" y="396.69" width="17.25" height="35.95"/><rect class="cls-1" x="316.88" y="442.52" width="17.25" height="35.95"/><rect class="cls-1" x="316.88" y="488.35" width="17.25" height="35.95"/><rect class="cls-1" x="342.76" y="305.03" width="17.25" height="35.95"/><rect class="cls-1" x="342.76" y="350.86" width="17.25" height="35.95"/><rect class="cls-1" x="342.76" y="396.69" width="17.25" height="35.95"/><rect class="cls-1" x="342.76" y="442.52" width="17.25" height="35.95"/><rect class="cls-1" x="342.76" y="488.35" width="17.25" height="35.95"/><rect class="cls-1" x="291" y="259.2" width="17.25" height="35.95"/><rect class="cls-1" x="316.88" y="259.2" width="17.25" height="35.95"/><rect class="cls-1" x="342.76" y="259.2" width="17.25" height="35.95"/><rect class="cls-1" x="368.64" y="259.2" width="17.25" height="35.95"/><rect class="cls-1" x="368.64" y="305.03" width="17.25" height="35.95"/><rect class="cls-1" x="368.64" y="350.86" width="17.25" height="35.95"/><rect class="cls-1" x="368.64" y="396.69" width="17.25" height="35.95"/><rect class="cls-1" x="368.64" y="442.52" width="17.25" height="35.95"/><rect class="cls-1" x="368.64" y="488.35" width="17.25" height="35.95"/></svg>