<svg id="Capa_1" data-name="Capa 1" xmlns="http://www.w3.org/2000/svg" viewBox="0 0 711.43 711.43"><defs><style>.cls-1{fill:#282b5e;}</style></defs><path class="cls-1" d="M185.28,361.44A81.3,81.3,0,0,1,172,360.31a4.41,4.41,0,1,1,1.45-8.7c23,3.83,43-3,61.17-20.92.49-.48,1-1,1.42-1.48a30.78,30.78,0,0,1,3.8-3.61c17.89-13.46,59.44-9.6,74.1,6.88a4.41,4.41,0,1,1-6.59,5.86c-11.51-12.94-48.13-16.29-62.2-5.7a22.62,22.62,0,0,0-2.66,2.58c-.55.59-1.1,1.18-1.68,1.75C224.28,353.24,205.66,361.44,185.28,361.44Z"/><path class="cls-1" d="M537.49,361.46c-20.48,0-39.32-8.56-57.25-25.95-12.43-12-27.44-9.94-43.33-7.72-3.85.54-7.84,1.1-11.75,1.43-1.36.12-4.09,3.12-5.88,5.11a56.22,56.22,0,0,1-4.32,4.41,4.41,4.41,0,0,1-5.8-6.65,44.06,44.06,0,0,0,3.58-3.69c3.37-3.71,6.85-7.55,11.66-8,3.69-.32,7.38-.83,11.29-1.38,16.49-2.3,35.17-4.91,50.68,10.12,19.85,19.23,39.82,26.36,62.87,22.44a4.41,4.41,0,0,1,1.48,8.69A79.21,79.21,0,0,1,537.49,361.46Z"/><path class="cls-1" d="M465.85,461.35c-7.86,0-15.73-.42-23.39-.83-3.85-.2-7.7-.41-11.55-.56a4.41,4.41,0,0,1-4.23-4.58,4.35,4.35,0,0,1,4.58-4.23c3.89.15,7.78.36,11.67.57,9.11.48,18.52,1,27.67.76,4.11-.11,13.73-.35,17.37-3.71,20.94-19.38,45.64-19.65,62.4-18.16a4.42,4.42,0,0,1,4,4.78,4.37,4.37,0,0,1-4.78,4c-24.3-2.15-41.46,2.74-55.63,15.85-5.34,4.94-14.28,5.83-23.14,6.05C469.16,461.33,467.5,461.35,465.85,461.35Z"/><path class="cls-1" d="M259.87,462c-16,0-31.76-3.18-46.22-17.09-7.32-7.05-17.76-6.45-28.8-5.8-4.06.24-8.25.49-12.33.33a4.41,4.41,0,0,1,.33-8.81c3.66.13,7.46-.09,11.49-.32,11.87-.69,25.33-1.48,35.42,8.24,17.74,17.07,38.12,15.35,59.69,13.52,3.89-.33,7.9-.67,11.88-.89a4.41,4.41,0,0,1,.5,8.81c-3.86.21-7.81.55-11.63.87C273.46,461.4,266.65,462,259.87,462Z"/><path class="cls-1" d="M411.2,461.58c-3.42,0-6.87,0-10.29-.06-7.46-.09-15.6-1-19.52-6.78s-1.63-14.1,1.2-21.34A11.18,11.18,0,0,1,388,429l40.85-2.39,1.39,1.35c5.64,5.46,8.5,11.08,8.5,16.68,0,5.37-2.62,10.64-7.78,15.64l-1.28,1.24h-1.79l-8.35,0Zm-20.82-23.87c-2.88,7.74-2.52,10.86-1.68,12.1s3.67,2.79,12.32,2.89c6.17.08,12.34.06,18.51,0h6.52c2.61-2.85,3.89-5.5,3.89-8.07,0-2.75-1.51-5.77-4.49-9Z"/><path class="cls-1" d="M311.46,461.58l-8.36,0-8.35,0H293l-1.28-1.24c-5.16-5-7.77-10.27-7.77-15.64,0-5.6,2.85-11.22,8.49-16.68l1.39-1.35L334.64,429a4.44,4.44,0,0,1,3.55,2.17,4.37,4.37,0,0,1,1.88,2.21c2.83,7.24,5.18,15.45,1.2,21.34s-12.06,6.69-19.52,6.78C318.33,461.56,314.88,461.58,311.46,461.58Zm-14.85-8.85h6.52c6.17,0,12.34,0,18.51,0,8.65-.1,11.47-1.63,12.32-2.89s1.2-4.36-1.68-12.1l-35.07-2c-3,3.23-4.49,6.25-4.49,9C292.72,447.23,294,449.88,296.61,452.73Z"/><path class="cls-1" d="M309,404.63a4.4,4.4,0,0,1-4.41-4.4V332.81l3.31-.85c19.47-5,34.52-2.9,41.3,5.82,3.74,4.82,6.53,13.63-1.46,28.21a4.41,4.41,0,0,1-7.73-4.24c4.44-8.1,5.23-14.69,2.22-18.56-4.06-5.23-14.94-6.49-28.82-3.48v60.52A4.41,4.41,0,0,1,309,404.63Z"/><path class="cls-1" d="M413.64,404.63a4.41,4.41,0,0,1-4.41-4.4V339.71c-13.88-3-24.76-1.75-28.82,3.48-3,3.87-2.22,10.46,2.22,18.56A4.41,4.41,0,0,1,374.9,366c-8-14.58-5.2-23.39-1.46-28.21,6.78-8.72,21.83-10.84,41.3-5.82l3.31.85v67.42A4.4,4.4,0,0,1,413.64,404.63Z"/><path class="cls-1" d="M231.33,414.12a4.41,4.41,0,0,1-.8-8.74c17.83-3.34,31.5-13.75,43-32.73a4.41,4.41,0,1,1,7.54,4.57c-12.73,21-28.73,33-48.93,36.83A4.54,4.54,0,0,1,231.33,414.12Z"/><path class="cls-1" d="M491.33,414.12a4.54,4.54,0,0,1-.82-.07c-20.2-3.79-36.2-15.84-48.93-36.83a4.41,4.41,0,1,1,7.54-4.57c11.51,19,25.18,29.39,43,32.73a4.41,4.41,0,0,1-.8,8.74Z"/><path class="cls-1" d="M293,408l-1.14-.64c-10.3-5.74-18-27.87-12.44-47.8a4.41,4.41,0,0,1,8.5,2.37c-4.43,15.94,1.78,32.62,7.29,37.08L342,395.83a4.4,4.4,0,1,1,.59,8.79Z"/><path class="cls-1" d="M427.88,409.16l-54.29-6.51-1.11-1.23c-13.42-14.84-13.31-19.89.78-38.62l1.33-1.76h35.88a4.41,4.41,0,1,1,0,8.82H379c-10.07,13.48-9.77,14.77-1.07,24.43l48.28,5.79c6.86-4.59,13.18-21.57,8.56-38.19a4.41,4.41,0,0,1,8.49-2.37c5.41,19.44-1.36,42.83-14.21,49.07Z"/><path class="cls-1" d="M361.33,305a4.41,4.41,0,0,1-4.41-4.4V262.7a4.41,4.41,0,0,1,8.82,0v37.94A4.41,4.41,0,0,1,361.33,305Z"/><path class="cls-1" d="M339.13,308.21a4.41,4.41,0,0,1-4.31-3.51l-7.93-37.94a4.41,4.41,0,0,1,8.64-1.8l7.92,37.94a4.4,4.4,0,0,1-3.41,5.21A4.09,4.09,0,0,1,339.13,308.21Z"/><path class="cls-1" d="M383.53,308.21a4.09,4.09,0,0,1-.91-.1,4.4,4.4,0,0,1-3.41-5.21L387.13,265a4.41,4.41,0,1,1,8.64,1.8l-7.93,37.94A4.41,4.41,0,0,1,383.53,308.21Z"/><path class="cls-1" d="M361.33,520a4.41,4.41,0,0,1-4.41-4.41V477.68a4.41,4.41,0,0,1,8.82,0v37.94A4.41,4.41,0,0,1,361.33,520Z"/><path class="cls-1" d="M331.21,516.87a4.41,4.41,0,0,1-4.28-5.48l9.51-37.94a4.41,4.41,0,1,1,8.56,2.14l-9.51,37.94A4.41,4.41,0,0,1,331.21,516.87Z"/><path class="cls-1" d="M391.44,516.87a4.4,4.4,0,0,1-4.27-3.34l-9.51-37.94a4.41,4.41,0,1,1,8.56-2.14l9.51,37.94a4.41,4.41,0,0,1-4.29,5.48Z"/><path class="cls-1" d="M336,437.83a4.41,4.41,0,0,1-2.16-8.25c5.76-3.24,9.18-6.91,10.16-10.92s-.35-8.79-3.93-14.26l-1.86-2.84,2.28-2.53c13.33-14.75,13.87-16.09,3-29.17H310.6a4.41,4.41,0,1,1,0-8.82h36.93l1.32,1.57c14.57,17.32,15,23.15.33,39.88,3.6,6.51,4.73,12.64,3.35,18.26-1.58,6.48-6.43,12-14.41,16.52A4.4,4.4,0,0,1,336,437.83Z"/><path class="cls-1" d="M386.69,437.83a4.34,4.34,0,0,1-2.16-.57c-14.85-8.38-18.76-20.77-11.3-35.83a4.41,4.41,0,0,1,7.9,3.91c-5.32,10.75-2.94,18.22,7.73,24.24a4.41,4.41,0,0,1-2.17,8.25Z"/><path class="cls-1" d="M293.17,436.25a4.41,4.41,0,0,1-3.93-2.39c-4.24-8.27-10.06-19.59-1.2-31.52a4.41,4.41,0,0,1,7.08,5.26c-5.2,7-2.6,13.34,2,22.23a4.41,4.41,0,0,1-3.92,6.42Z"/><path class="cls-1" d="M429.5,436.25l-.52,0a4.4,4.4,0,0,1-3.86-4.89l3.17-26.88a4.41,4.41,0,0,1,8.76,1l-3.18,26.88A4.41,4.41,0,0,1,429.5,436.25Z"/></svg>