<svg id="Capa_1" data-name="Capa 1" xmlns="http://www.w3.org/2000/svg" viewBox="0 0 711.43 711.43"><defs><style>.cls-1{fill:#282b5e;}</style></defs><path class="cls-1" d="M502.67,337.23a8,8,0,0,1-8-8v-2.29a8,8,0,1,1,16,0v2.29A8,8,0,0,1,502.67,337.23Z"/><path class="cls-1" d="M358.6,582.21a8,8,0,0,1-8-8V486.57h-21v87.61a8,8,0,1,1-16,0V478.55a8,8,0,0,1,8-8H358.6a8,8,0,0,1,8,8v95.63A8,8,0,0,1,358.6,582.21Z"/><path class="cls-1" d="M358.6,271.17a8,8,0,0,1-8-8v-29h-21v29a8,8,0,0,1-16,0v-37a8,8,0,0,1,8-8H358.6a8,8,0,0,1,8,8v37A8,8,0,0,1,358.6,271.17Z"/><path class="cls-1" d="M214.39,305.64H209a8,8,0,0,1,0-16.05h5.38a8,8,0,0,1,0,16.05Z"/><path class="cls-1" d="M471.14,305.64h-5.38a8,8,0,0,1,0-16.05h5.38a8,8,0,0,1,0,16.05Z"/><path class="cls-1" d="M483.38,485.71H196.77a27.6,27.6,0,0,1-27.56-27.56V285.28a27.6,27.6,0,0,1,27.56-27.57H483.38a27.6,27.6,0,0,1,27.56,27.57v11.47a8,8,0,0,1-16.05,0V285.28a11.53,11.53,0,0,0-11.51-11.52H196.77a11.53,11.53,0,0,0-11.51,11.52V458.15a11.52,11.52,0,0,0,11.51,11.51H483.38a11.52,11.52,0,0,0,11.51-11.51V357.07a8,8,0,1,1,16.05,0V458.15A27.6,27.6,0,0,1,483.38,485.71Z"/><path class="cls-1" d="M250.83,365.11V297.54h42.7v8H259.21v20.93H288.9v8H259.21v30.7Z"/><path class="cls-1" d="M301.9,332.2q0-17.28,8.69-26.57a28.41,28.41,0,0,1,21.64-9.29,28.57,28.57,0,0,1,26.19,16.2q4,7.9,4,18.83,0,15-7.79,24.47-8.58,10.43-22.48,10.42t-22.54-10.69Q301.9,345.9,301.9,332.2Zm8.64.12q0,12.49,6.29,19.39a20.51,20.51,0,0,0,30.75-.07q6.24-7,6.24-20.48a36.42,36.42,0,0,0-3.22-15.59,20.61,20.61,0,0,0-33.93-4.66Q310.53,317.84,310.54,332.32Z"/><path class="cls-1" d="M373,365.11V297.54h28.06q8.79,0,13,1.89a15.45,15.45,0,0,1,6.87,6.29,19.17,19.17,0,0,1,2.69,10.2q0,7.65-4.56,12.39t-13.24,6a21.38,21.38,0,0,1,5.37,3.76,47.11,47.11,0,0,1,6.58,8.62l11.06,18.39H418.31l-8.44-14.05a87.15,87.15,0,0,0-7.4-11.11,14,14,0,0,0-4.84-3.85,17.31,17.31,0,0,0-6.55-1H381.4v30Zm8.37-37.75h18a24.84,24.84,0,0,0,8.95-1.24,10.44,10.44,0,0,0,4.84-3.92A10.87,10.87,0,0,0,415,316a10.05,10.05,0,0,0-3.42-8.05Q408.15,305,401.41,305h-20Z"/><path class="cls-1" d="M224,447.08V379.51h28.07q8.79,0,13,1.89a15.51,15.51,0,0,1,6.87,6.29,19.17,19.17,0,0,1,2.69,10.2q0,7.65-4.56,12.39t-13.24,6a21.38,21.38,0,0,1,5.37,3.76,47.45,47.45,0,0,1,6.58,8.62l11.06,18.39H269.26L260.82,433a87.15,87.15,0,0,0-7.4-11.11,14.16,14.16,0,0,0-4.84-3.85,17.3,17.3,0,0,0-6.55-1h-9.68v30Zm8.37-37.75h18a24.84,24.84,0,0,0,8.95-1.24,10.39,10.39,0,0,0,4.84-3.92,10.87,10.87,0,0,0,1.79-6.22,10,10,0,0,0-3.42-8Q259.1,387,252.36,387h-20Z"/><path class="cls-1" d="M288,447.08V379.51h45.76v8H296.38v20.64h35v8h-35v23h38.85v8Z"/><path class="cls-1" d="M346.55,447.08V379.51h8.58l33.28,53.16V379.51h8v67.57h-8.58L354.6,393.92v53.16Z"/><path class="cls-1" d="M426.84,447.08V387.49H406v-8h50.17v8h-21v59.59Z"/></svg>