<svg id="Capa_1" data-name="Capa 1" xmlns="http://www.w3.org/2000/svg" viewBox="0 0 711.43 711.43"><defs><style>.cls-1{fill:#282b5e;}</style></defs><path class="cls-1" d="M346.76,551.07a107.75,107.75,0,0,1-12.16-.69l-8.53-1c-18-2-35.07-3.9-52.27-7.21-26.39-5.08-28.39-9.7-28.87-36.23-.69-38.41,12-67.76,38.9-89.72,8.44-6.91,16.66-10,29.34-2.55,19,11.17,39.37,10.89,58.89-.8,10.68-6.41,17.91-3.9,25.47,1.84,32.26,24.46,44.93,58.72,39.86,107.83-.74,7.18-10.83,14.63-17.27,16.16-16.83,4-34.11,7-50.82,10l-4,.71A106.11,106.11,0,0,1,346.76,551.07Zm-47-135.13c-3.79,0-7.39,1.77-11.81,5.38-25.21,20.61-37.14,48.27-36.49,84.54.43,23.56.46,25.48,23.56,29.93,17,3.26,33.86,5.14,51.76,7.13l8.54,1a100.55,100.55,0,0,0,28.79-.87l4-.71c16.62-2.93,33.81-6,50.45-9.92,5.21-1.24,12-7.48,12.27-10.47,4.82-46.61-7-79-37.3-101.95-6.15-4.66-10.43-6.07-18.17-1.44-21.38,12.81-44.66,13.11-65.55.83C306,417.1,302.83,415.94,299.77,415.94Z"/><path class="cls-1" d="M441.63,476.48l-.77-2.73c-8.52-30-24.71-53-46.83-66.63l-2.5-1.53,1.26-2.66c11.84-24.85,13.73-38.6,13.33-58.29l-.09-4.95,4.58,1.85c20.74,8.34,41.93,6.15,61.3-6.32,4.51-2.91,12.83.29,16.27,2.65,26.67,18.3,41.41,44.48,43.8,77.81.21,3,.14,5.92.08,8.78,0,1.49-.07,3-.07,4.46.11,28.15-2,33.11-30.65,39.08-12.72,2.66-25.4,4.19-38.82,5.81-5.89.71-12,1.45-18.07,2.29Zm-41.7-73.35c21.59,14.19,37.58,36.94,46.42,66.11,5.2-.69,10.37-1.32,15.39-1.92,13.27-1.61,25.82-3.12,38.27-5.72,24.59-5.12,25.54-6.34,25.44-32.65,0-1.55,0-3.1.07-4.65.06-2.82.13-5.5-.06-8.15-2.24-31.24-16-55.77-41-72.88-3-2.07-7.9-3.11-9.05-2.54-19.8,12.75-41.39,15.68-62.72,8.55C412.71,366.91,410.31,380.69,399.93,403.13Z"/><path class="cls-1" d="M233,474.43a7,7,0,0,1-1.05-.08c-20.52-3-42.51-6.35-64.22-10.78-10.95-2.24-16.45-9.87-16.8-23.33-.72-27.93,2.1-63.56,30.63-91.48,16.69-16.34,20.17-17,41.44-7.66a61,61,0,0,0,49.74.18l5.67-2.52-1.12,6.1c-3.3,17.92.52,34.7,13.17,57.9l1.48,2.71-2.62,1.63c-20.67,12.87-36.6,34.37-44.88,60.56C243.23,471.37,237.16,474.43,233,474.43ZM203.64,341.57c-5.26,0-9.08,3.58-17.55,11.86-26.72,26.16-29.35,60-28.66,86.64.27,10.38,3.73,15.49,11.57,17.09,21.55,4.4,43.42,7.75,63.85,10.72,1.36.21,4.8-1.43,5.39-2.37,8.33-26.41,24.27-48.47,45-62.3-10.88-20.66-15-37.23-13.25-53.84a67.59,67.59,0,0,1-49.65-2.28C212.29,343.57,207.57,341.57,203.64,341.57Z"/><path class="cls-1" d="M341.38,417H341a56.81,56.81,0,0,1-56.23-57.16h0c.16-32.47,24.91-56.92,57.57-56.92h.12a56.07,56.07,0,0,1,56.27,57C398.52,392,373.36,417,341.38,417Zm1-107.54c-29.44,0-50.89,21.18-51,50.41h0A50.26,50.26,0,0,0,341,410.49h.36c28.79,0,50.6-21.7,50.79-50.63a49.55,49.55,0,0,0-49.75-50.37ZM288,359.88h0Z"/><path class="cls-1" d="M247.34,341.91A57,57,0,1,1,248,228h.28c31.36.13,56.91,25.51,56.95,56.58a56.67,56.67,0,0,1-16.75,40.68,57.87,57.87,0,0,1-41,16.65ZM248,234.54a50.42,50.42,0,1,0-.62,100.83h.06a51.41,51.41,0,0,0,36.44-14.75,50.19,50.19,0,0,0,14.81-36c0-27.95-22.19-49.93-50.44-50H248Z"/><path class="cls-1" d="M435.46,342a57.17,57.17,0,0,1-57.13-56.38,56.56,56.56,0,0,1,16.34-40.65A57.38,57.38,0,0,1,435.76,228h0c31.74,0,56.84,24.7,57.14,56.23A56.69,56.69,0,0,1,435.61,342Zm.3-107.41a50.88,50.88,0,0,0-36.44,15,50.06,50.06,0,0,0-14.45,36,50.62,50.62,0,0,0,50.59,49.91h.13a50.87,50.87,0,0,0,36.39-15,50.33,50.33,0,0,0,14.41-36.16c-.26-27.9-22.49-49.75-50.6-49.75Zm0-3.27h0Z"/></svg>