<svg id="Capa_1" data-name="Capa 1" xmlns="http://www.w3.org/2000/svg" viewBox="0 0 711.43 711.43"><defs><style>.cls-1{fill:#282b5e;}</style></defs><path class="cls-1" d="M340.2,554.45a454.07,454.07,0,0,1-56.32-3.51c-20.46-2.55-40.38-5.62-59.11-14.89C217.5,532.46,208.06,526,210,511.4c.08-.66.19-2.17.34-4.35,3.85-53.84,13.27-90.69,28-109.53a130.06,130.06,0,0,1,39.32-34.65c4.88-2.79,9.11-2.53,13.72.85,29.68,21.76,68,21.8,97.6.12,5.05-3.7,9.68-3.85,15-.48,42.84,27.14,65.19,66.37,66.44,116.62.14,5.56.06,11.18,0,16.62-.09,5.92-.18,12,0,18,.3,8.84-3.69,15.38-12.19,20-15.72,8.56-32.77,12-48.85,14.52A452.21,452.21,0,0,1,340.2,554.45ZM283.9,369.67a4.2,4.2,0,0,0-2,.76A121.43,121.43,0,0,0,245.2,402.8l0,.06c-13.65,17.43-22.46,52.7-26.18,104.81-.17,2.43-.3,4.11-.39,4.85-1,7.27,1.87,11.68,10,15.73,17.51,8.67,36.64,11.59,56.33,14a444.76,444.76,0,0,0,123-1.77c15.3-2.37,31.47-5.65,46-13.57,5.62-3.06,7.83-6.55,7.64-12.06-.21-6.17-.12-12.41,0-18.43.08-5.35.16-10.88,0-16.27-1.18-47.17-22.17-84-62.4-109.48-2.29-1.45-3.07-1.43-5.2.14-32.74,24-75.09,23.93-107.9-.11A4,4,0,0,0,283.9,369.67Zm-42.17,30.5h0Z"/><path class="cls-1" d="M339.63,375.13A76.4,76.4,0,0,1,286,352.78c-14.85-14.56-23.11-33.62-23.25-53.66-.15-21.82,7.73-41.9,22.2-56.56,14.32-14.51,34-22.58,55.46-22.7h.48a77,77,0,0,1,54,22.12,75,75,0,0,1,23,53.57c.23,44.3-33.9,79.26-77.71,79.58Zm.8-146.57c-19.12.12-36.63,7.26-49.32,20.12-12.84,13-19.83,30.89-19.69,50.38.12,17.71,7.45,34.58,20.63,47.5a67.92,67.92,0,0,0,48.08,19.86c39.58-.3,69.27-30.75,69.06-70.84a66.35,66.35,0,0,0-20.42-47.38,68.47,68.47,0,0,0-48.34-19.64Zm0-4.35h0Z"/></svg>