<svg id="Capa_1" data-name="Capa 1" xmlns="http://www.w3.org/2000/svg" viewBox="0 0 711.43 711.43"><defs><style>.cls-1{fill:#282b5e;}</style></defs><path class="cls-1" d="M357.94,449.4H296.46v67.87c0,5.46-1.73,7.31-6.81,7.31H222.79c-5.13,0-6.83-1.8-6.83-7.26q0-45.48,0-91c0-4.51,2.09-7,5.67-6.79a5.14,5.14,0,0,1,4.85,4.7,28.54,28.54,0,0,1,.14,3.7q0,40.63,0,81.27c0,3.81,0,3.81,3.61,3.81,17.46,0,34.92-.06,52.38.07,2.62,0,3.19-.86,3.18-3.54-.1-21.29-.06-42.58-.05-63.87,0-6.37,1.57-8.06,7.53-8.06h67.91c5.92,0,7.42,1.66,7.42,8.13,0,21.39,0,42.77-.05,64.16,0,2.56.69,3.17,3,3.16q73.58-.09,147.15,0c2.57,0,3-1,3-3.44q-.1-41.49,0-83c0-4.46,1.68-6.86,4.87-7.12s5.6,2,5.81,5.48c.05.76,0,1.52,0,2.28v89.53c0,6.07-1.54,7.71-7.23,7.71h-160c-5.58,0-7.1-1.66-7.11-7.83V449.4Z"/><path class="cls-1" d="M625,384.94c-.51,2.89-1.52,5.08-3.77,5.63a8.57,8.57,0,0,1-6.07-.64c-3-1.92-5.5-4.65-8.19-7.06q-51.93-46.59-103.81-93.21a8.65,8.65,0,0,0-6.33-2.43q-77.37.24-154.72.33-50.53.1-101.06.18a7.1,7.1,0,0,0-5.26,2.13q-49,45.74-98.13,91.39a26,26,0,0,1-2.57,2.25,5.79,5.79,0,0,1-7.85-8.35,18.29,18.29,0,0,1,1.81-1.82Q180.34,325.61,231.66,278a7.56,7.56,0,0,1,4.72-1.82q95.92-.24,191.84-.29,36.82,0,73.64-.2a7.35,7.35,0,0,1,5.35,2q57.07,51.3,114.21,102.56C622.87,381.5,623.83,383.35,625,384.94Z"/><path class="cls-1" d="M568.41,379.46c-.94,16-14.79,30.16-31.8,33.78-18.78,4-43.08-4.84-51.25-30.68-.13.07-.33.11-.38.22-6.2,15.23-18.11,22.75-32,27.19-20.35,6.51-40.55,5.82-60.23-3.11-10.63-4.81-19.36-12.21-24.77-23.58a7.68,7.68,0,0,0-.69-.95c-6.59,21.35-21.05,30.78-40.84,31.76-9.43.47-18.21-2.45-26.11-8.15a43.9,43.9,0,0,1-16.23-23.05c-.38.09-.62.08-.65.16-5.07,14.14-15.23,22.21-27.95,26.85-18.43,6.71-36.61,5.86-54.16-3.52-10.47-5.59-18.08-14.21-22.35-27a10.72,10.72,0,0,1,2.44,1.34c12.05,12.78,27,17.81,43.36,19.12,12.56,1,24.87-.19,36.84-4.58a44,44,0,0,0,20.06-14.09c1.55-2,2.6-1.87,4.21-.07,8,8.95,17.25,15.65,28.73,17.83,19.65,3.73,36.93-.87,50.45-17.76,1-1.2,1.87-2.48,3.42-.87,10.3,10.7,23.05,15.62,36.79,18,18,3.11,36,2.7,53.74-2.39,9.48-2.71,18.12-7.13,24.73-15.31,1.5-1.85,2.51-.8,3.65.45,6.92,7.63,14.68,14,24.4,16.67,21.08,5.79,39.81,1.82,54.82-16.45C567.17,380.58,567.82,380.05,568.41,379.46Z"/><path class="cls-1" d="M452.78,491.1q-17.88,0-35.78,0c-6.8,0-10-3.44-10-10.78q0-19.1,0-38.19c0-7.19,3.21-10.73,9.8-10.73q35.91,0,71.82,0c6.4,0,9.79,3.65,9.81,10.52q0,19.38,0,38.75c0,6.75-3.39,10.4-9.6,10.42C476.81,491.12,464.8,491.1,452.78,491.1Zm-37.11-9.49h73.88v-40.7H415.67Z"/></svg>