<svg id="Capa_1" data-name="Capa 1" xmlns="http://www.w3.org/2000/svg" viewBox="0 0 711.43 711.43"><defs><style>.cls-1{fill:#282b5e;}</style></defs><path class="cls-1" d="M458.42,468.21H354.15a4.91,4.91,0,0,1-4.91-4.91V399H313.08V463.3a4.91,4.91,0,0,1-4.91,4.91H263.7a4.91,4.91,0,0,1-4.91-4.91V377.44a4.91,4.91,0,1,1,9.82,0v81h34.66V394.12a4.9,4.9,0,0,1,4.9-4.91h46a4.9,4.9,0,0,1,4.9,4.91V458.4h94.46v-81a4.91,4.91,0,1,1,9.81,0V463.3A4.9,4.9,0,0,1,458.42,468.21Z"/><path class="cls-1" d="M484.19,378.2a4.88,4.88,0,0,1-3.47-1.44L361.06,257.1,241.39,376.76a4.9,4.9,0,0,1-6.93-6.94l126.6-126.6,126.6,126.6a4.91,4.91,0,0,1-3.47,8.38Z"/><path class="cls-1" d="M425.16,393.19V427H391.33V393.19h33.83m0-9.82H391.33a9.82,9.82,0,0,0-9.81,9.82V427a9.82,9.82,0,0,0,9.81,9.82h33.83A9.82,9.82,0,0,0,435,427V393.19a9.82,9.82,0,0,0-9.81-9.82Z"/><path class="cls-1" d="M444.4,338.48a4.9,4.9,0,0,1-4.91-4.9V286.35h-22a4.91,4.91,0,1,1,0-9.82h31.82v57.05A4.9,4.9,0,0,1,444.4,338.48Z"/></svg>