<svg id="Capa_1" data-name="Capa 1" xmlns="http://www.w3.org/2000/svg" viewBox="0 0 711.43 711.43"><defs><style>.cls-1{fill:#282b5e;}</style></defs><path class="cls-1" d="M364.73,468.44A106.67,106.67,0,1,1,471.39,361.77,106.79,106.79,0,0,1,364.73,468.44Zm0-203.75a97.09,97.09,0,1,0,97.08,97.08A97.19,97.19,0,0,0,364.73,264.69Z"/><ellipse class="cls-1" cx="334.28" cy="335.18" rx="11.5" ry="18.2"/><ellipse class="cls-1" cx="395.17" cy="335.18" rx="11.5" ry="18.2"/><path class="cls-1" d="M301.79,385.48A62.81,62.81,0,0,0,312.32,403a56.78,56.78,0,0,0,7,7l3.86,3,4.13,2.62c11.28,6.48,24.37,9.06,37.6,9.1s26.31-2.49,37.61-8.89a55.74,55.74,0,0,0,14.88-12.74,60.48,60.48,0,0,0,10.24-17.64c-1,14.08-9,27.81-20.95,36.66-1.5,1.1-3.12,2-4.68,3a25.42,25.42,0,0,1-2.42,1.41l-2.52,1.16a50,50,0,0,1-5.13,2.19l-5.3,1.64a32.71,32.71,0,0,1-5.39,1.2l-5.44.95c-3.64.27-7.29.47-10.93.61-3.65-.24-7.3-.29-10.93-.71l-5.44-.95-2.71-.48c-.89-.22-1.77-.53-2.66-.79l-5.3-1.63c-1.74-.64-3.41-1.49-5.11-2.23l-2.52-1.15-2.39-1.45a55.49,55.49,0,0,1-4.66-3C311.2,413.11,303.11,399.52,301.79,385.48Z"/></svg>