<svg id="Capa_1" data-name="Capa 1" xmlns="http://www.w3.org/2000/svg" viewBox="0 0 711.43 711.43"><defs><style>.cls-1{fill:#282b5e;}</style></defs><path class="cls-1" d="M544.62,358.5a4,4,0,0,1-2.43-.82l-94.73-72.14-66.84,50.89a4,4,0,1,1-4.87-6.39l71.71-54.6,99.6,75.85a4,4,0,0,1-2.44,7.21Z"/><path class="cls-1" d="M516,334.69a4,4,0,0,1-4-4V307H496.58a4,4,0,0,1,0-8H520v31.67A4,4,0,0,1,516,334.69Z"/><path class="cls-1" d="M516.49,501.23H482.28a4,4,0,0,1-4-4V448H450.93v49.21a4,4,0,0,1-4,4h-68.5a4,4,0,0,1-4-4v-113a4,4,0,1,1,8,0v109H442.9V444a4,4,0,0,1,4-4h35.37a4,4,0,0,1,4,4V493.2h26.17V359a4,4,0,0,1,8,0V497.22A4,4,0,0,1,516.49,501.23Z"/><path class="cls-1" d="M420.63,388v26.31H403.38V388h17.25m0-8H403.38a8,8,0,0,0-8,8v26.31a8,8,0,0,0,8,8h17.25a8,8,0,0,0,8-8V388a8,8,0,0,0-8-8Z"/><path class="cls-1" d="M469,388v26.31H451.7V388H469m0-8H451.7a8,8,0,0,0-8,8v26.31a8,8,0,0,0,8,8H469a8,8,0,0,0,8-8V388a8,8,0,0,0-8-8Z"/><path class="cls-1" d="M420.63,445.77v26.31H403.38V445.77h17.25m0-8H403.38a8,8,0,0,0-8,8v26.31a8,8,0,0,0,8,8h17.25a8,8,0,0,0,8-8V445.77a8,8,0,0,0-8-8Z"/><path class="cls-1" d="M212.21,358.5a4,4,0,0,1-2.44-7.21l99.6-75.85,71.13,54.17a4,4,0,0,1-4.87,6.39l-66.26-50.46-94.73,72.14A4,4,0,0,1,212.21,358.5Z"/><path class="cls-1" d="M240.86,334.69a4,4,0,0,1-4-4V299h23.39a4,4,0,1,1,0,8H244.88v23.64A4,4,0,0,1,240.86,334.69Z"/><path class="cls-1" d="M378.41,501.23h-68.5a4,4,0,0,1-4-4V448H278.56v49.21a4,4,0,0,1-4,4H240.33a4,4,0,0,1-4-4V359a4,4,0,1,1,8,0V493.2h26.18V444a4,4,0,0,1,4-4h35.36a4,4,0,0,1,4,4V493.2h64.48a4,4,0,1,1,0,8Z"/><path class="cls-1" d="M353.45,388v26.31H336.2V388h17.25m0-8H336.2a8,8,0,0,0-8,8v26.31a8,8,0,0,0,8,8h17.25a8,8,0,0,0,8-8V388a8,8,0,0,0-8-8Z"/><path class="cls-1" d="M305.13,388v26.31H287.88V388h17.25m0-8H287.88a8,8,0,0,0-8,8v26.31a8,8,0,0,0,8,8h17.25a8,8,0,0,0,8-8V388a8,8,0,0,0-8-8Z"/><path class="cls-1" d="M353.45,445.77v26.31H336.2V445.77h17.25m0-8H336.2a8,8,0,0,0-8,8v26.31a8,8,0,0,0,8,8h17.25a8,8,0,0,0,8-8V445.77a8,8,0,0,0-8-8Z"/></svg>